<?xml version="1.0" standalone="no"?><svg xmlns:xlink="http://www.w3.org/1999/xlink" xmlns="http://www.w3.org/2000/svg" viewBox="0 0 1000 500" preserveAspectRatio="xMaxYMax slice"><g transform="scale(1.175917215428034)"><rect x="0" y="0" width="850.4000000000001" height="425.20000000000005" fill="#ffffff"/><rect x="0" y="0" width="70.87" height="70.87" fill="#ffefc8"/><path d="M 0 0 A 70.87 70.87 0 0 1  70.87 70.87 L 0 0 A 70.87 70.87 0 0 0 70.87 70.87" fill="#ffd366"/><rect x="70.86666666666667" y="0" width="70.86666666666667" height="70.86666666666667" fill="#ffffff"/><rect x="70.87" y="0" width="35.43" height="35.43" fill="#fff4d9"/><path d="M 70.87 0 A 35.43 35.43 0 0 1 106.30000000000001 35.43 L 70.87 35.43" fill="#ffd263"/><rect x="106.3" y="0" width="35.43" height="35.43" fill="#97a7ea"/><path d="M 106.3 35.43 A 35.43 35.43 0 0 1  141.73 0 L 141.73 35.43" fill="#f9fafe"/><rect x="70.87" y="35.43" width="35.43" height="35.43" fill="#4a67da"/><path d="M 70.87 70.86 A 35.43 35.43 0 0 0 106.30000000000001 35.43 L 70.87 35.43" fill="#ffd876"/><rect x="106.3" y="35.43" width="35.43" height="35.43" fill="#8d9fe8"/><path d="M 106.3 70.86 A 35.43 35.43 0 0 1  141.73 35.43 L 106.3 70.86 A 35.43 35.43 0 0 0 141.73 35.43" fill="#a4b2ed"/><rect x="141.73333333333335" y="0" width="70.86666666666667" height="70.86666666666667" fill="#ffffff"/><rect x="141.73" y="0" width="35.43" height="35.43" fill="#3958d7"/><path d="M 141.73 35.43 A 35.43 35.43 0 0 1  177.16 0 L 177.16 35.43" fill="#fff6df"/><rect x="177.17" y="0" width="35.43" height="35.43" fill="#ffe195"/><path d="M 177.17 35.43 A 35.43 35.43 0 0 0 212.6 0 L 177.17 0" fill="#4b67db"/><rect x="141.73" y="35.43" width="35.43" height="35.43" fill="#94a5e9"/><path d="M 141.73 70.86 A 35.43 35.43 0 0 1  177.16 35.43 L 141.73 70.86 A 35.43 35.43 0 0 0 177.16 35.43" fill="#acb9ee"/><rect x="177.17" y="35.43" width="35.43" height="35.43" fill="#8195e6"/><path d="M 177.17 70.86 A 35.43 35.43 0 0 0 212.6 35.43 L 177.17 35.43" fill="#ffe39c"/><rect x="212.6" y="0" width="70.87" height="70.87" fill="#fffcf3"/><path d="M 212.6 0 A 70.87 70.87 0 0 1 283.47 70.87 L 212.6 70.87" fill="#ffe29a"/><rect x="283.47" y="0" width="70.87" height="70.87" fill="#ffdf91"/><path d="M 283.47 0 A 70.87 70.87 0 0 1 354.34000000000003 70.87 L 283.47 70.87" fill="#cbd3f4"/><rect x="354.33333333333337" y="0" width="70.86666666666667" height="70.86666666666667" fill="#ffffff"/><rect x="354.33" y="0" width="35.43" height="35.43" fill="#ffd56d"/><path d="M 354.33 35.43 A 35.43 35.43 0 0 1  389.76 0 L 389.76 35.43" fill="#3958d7"/><rect x="389.77" y="0" width="35.43" height="35.43" fill="#ffd468"/><path d="M 389.77 35.43 A 35.43 35.43 0 0 1  425.2 0 L 389.77 35.43 A 35.43 35.43 0 0 0 425.2 0" fill="#ffd15c"/><rect x="354.33" y="35.43" width="35.43" height="35.43" fill="#ffffff"/><path d="M 354.33 70.86 A 35.43 35.43 0 0 0 389.76 35.43 L 354.33 35.43" fill="#fff5db"/><rect x="389.77" y="35.43" width="35.43" height="35.43" fill="#acbaee"/><path d="M 389.77 35.43 A 35.43 35.43 0 0 1  425.2 70.86 L 389.77 35.43 A 35.43 35.43 0 0 0 425.2 70.86" fill="#ffeab7"/><rect x="425.20000000000005" y="0" width="70.86666666666667" height="70.86666666666667" fill="#ffffff"/><rect x="425.2" y="0" width="35.43" height="35.43" fill="#2547d3"/><path d="M 425.2 35.43 A 35.43 35.43 0 0 0 460.63 0 L 425.2 0" fill="#91a3e9"/><rect x="460.63" y="0" width="35.43" height="35.43" fill="#ffe4a2"/><path d="M 460.63 0 A 35.43 35.43 0 0 0 496.06 35.43 L 496.06 0" fill="#ffcf58"/><rect x="425.2" y="35.43" width="35.43" height="35.43" fill="#536edc"/><path d="M 425.2 70.86 A 35.43 35.43 0 0 1  460.63 35.43 L 425.2 70.86 A 35.43 35.43 0 0 0 460.63 35.43" fill="#ffd468"/><rect x="460.63" y="35.43" width="35.43" height="35.43" fill="#758be3"/><path d="M 460.63 35.43 A 35.43 35.43 0 0 1 496.06 70.86 L 460.63 70.86" fill="#8195e6"/><rect x="496.0666666666667" y="0" width="70.86666666666667" height="70.86666666666667" fill="#ffffff"/><rect x="496.07" y="0" width="35.43" height="35.43" fill="#ffe8ae"/><path d="M 496.07 35.43 A 35.43 35.43 0 0 1  531.5 0 L 531.5 35.43" fill="#fffdf9"/><rect x="531.5" y="0" width="35.43" height="35.43" fill="#ffedbf"/><path d="M 531.5 35.43 A 35.43 35.43 0 0 1  566.93 0 L 531.5 35.43 A 35.43 35.43 0 0 0 566.93 0" fill="#d7ddf7"/><rect x="496.07" y="35.43" width="35.43" height="35.43" fill="#94a5e9"/><path d="M 496.07 70.86 A 35.43 35.43 0 0 1  531.5 35.43 L 531.5 70.86" fill="#ffd05b"/><rect x="531.5" y="35.43" width="35.43" height="35.43" fill="#fff9ea"/><path d="M 531.5 35.43 A 35.43 35.43 0 0 1  566.93 70.86 L 531.5 35.43 A 35.43 35.43 0 0 0 566.93 70.86" fill="#ffd97a"/><rect x="566.9333333333334" y="0" width="70.86666666666667" height="70.86666666666667" fill="#ffffff"/><rect x="566.93" y="0" width="35.43" height="35.43" fill="#ffcf57"/><path d="M 566.93 0 A 35.43 35.43 0 0 1  602.3599999999999 35.43 L 566.93 0 A 35.43 35.43 0 0 0 602.3599999999999 35.43" fill="#5b75de"/><rect x="602.37" y="0" width="35.43" height="35.43" fill="#b4c0f0"/><path d="M 602.37 0 A 35.43 35.43 0 0 0 637.8 35.43 L 637.8 0" fill="#ffe196"/><rect x="566.93" y="35.43" width="35.43" height="35.43" fill="#183dd0"/><path d="M 566.93 70.86 A 35.43 35.43 0 0 1  602.3599999999999 35.43 L 602.3599999999999 70.86" fill="#eaedfb"/><rect x="602.37" y="35.43" width="35.43" height="35.43" fill="#ffe39c"/><path d="M 602.37 70.86 A 35.43 35.43 0 0 0 637.8 35.43 L 602.37 35.43" fill="#fff2d0"/><rect x="637.8" y="0" width="70.87" height="70.87" fill="#ffd772"/><path d="M 637.8 0 A 70.87 70.87 0 0 1  708.67 70.87 L 637.8 0 A 70.87 70.87 0 0 0 708.67 70.87" fill="#ffe39c"/><rect x="708.67" y="0" width="70.87" height="70.87" fill="#ffdc84"/><path d="M 708.67 0 A 70.87 70.87 0 0 1  779.54 70.87 L 708.67 0 A 70.87 70.87 0 0 0 779.54 70.87" fill="#ffdd87"/><rect x="779.5333333333334" y="0" width="70.86666666666667" height="70.86666666666667" fill="#ffffff"/><rect x="779.53" y="0" width="35.43" height="35.43" fill="#ffe39e"/><path d="M 779.53 35.43 A 35.43 35.43 0 0 1  814.9599999999999 0 L 814.9599999999999 35.43" fill="#f1f3fc"/><rect x="814.97" y="0" width="35.43" height="35.43" fill="#ffd671"/><path d="M 814.97 35.43 A 35.43 35.43 0 0 1  850.4 0 L 814.97 35.43 A 35.43 35.43 0 0 0 850.4 0" fill="#ffd160"/><rect x="779.53" y="35.43" width="35.43" height="35.43" fill="#4563da"/><path d="M 779.53 70.86 A 35.43 35.43 0 0 0 814.9599999999999 35.43 L 779.53 35.43" fill="#3e5dd8"/><rect x="814.97" y="35.43" width="35.43" height="35.43" fill="#3d5cd8"/><path d="M 814.97 70.86 A 35.43 35.43 0 0 1  850.4 35.43 L 814.97 70.86 A 35.43 35.43 0 0 0 850.4 35.43" fill="#ffd05a"/><rect x="0" y="70.87" width="70.87" height="70.87" fill="#4b67db"/><path d="M 0 141.74 A 70.87 70.87 0 0 1  70.87 70.87 L 70.87 141.74" fill="#fffbf2"/><rect x="70.87" y="70.87" width="70.87" height="70.87" fill="#2e4fd5"/><path d="M 70.87 141.74 A 70.87 70.87 0 0 1  141.74 70.87 L 70.87 141.74 A 70.87 70.87 0 0 0 141.74 70.87" fill="#ffda7e"/><rect x="141.73333333333335" y="70.86666666666667" width="70.86666666666667" height="70.86666666666667" fill="#ffffff"/><rect x="141.73" y="70.87" width="35.43" height="35.43" fill="#aab8ee"/><path d="M 141.73 70.87 A 35.43 35.43 0 0 1 177.16 106.30000000000001 L 141.73 106.30000000000001" fill="#2044d2"/><rect x="177.17" y="70.87" width="35.43" height="35.43" fill="#fff7e3"/><path d="M 177.17 70.87 A 35.43 35.43 0 0 1  212.6 106.30000000000001 L 177.17 70.87 A 35.43 35.43 0 0 0 212.6 106.30000000000001" fill="#ffdf8e"/><rect x="141.73" y="106.3" width="35.43" height="35.43" fill="#ffe298"/><path d="M 141.73 141.73 A 35.43 35.43 0 0 1  177.16 106.3 L 141.73 141.73 A 35.43 35.43 0 0 0 177.16 106.3" fill="#ffe197"/><rect x="177.17" y="106.3" width="35.43" height="35.43" fill="#e1e6f9"/><path d="M 177.17 106.3 A 35.43 35.43 0 0 0 212.6 141.73 L 212.6 106.3" fill="#fff2d1"/><rect x="212.60000000000002" y="70.86666666666667" width="70.86666666666667" height="70.86666666666667" fill="#ffffff"/><rect x="212.6" y="70.87" width="35.43" height="35.43" fill="#ffeec2"/><path d="M 212.6 106.30000000000001 A 35.43 35.43 0 0 0 248.03 70.87 L 212.6 70.87" fill="#fff5db"/><rect x="248.03" y="70.87" width="35.43" height="35.43" fill="#4d6adb"/><path d="M 248.03 70.87 A 35.43 35.43 0 0 1 283.46 106.30000000000001 L 248.03 106.30000000000001" fill="#4b68db"/><rect x="212.6" y="106.3" width="35.43" height="35.43" fill="#ffeec2"/><path d="M 212.6 141.73 A 35.43 35.43 0 0 0 248.03 106.3 L 212.6 106.3" fill="#6c83e1"/><rect x="248.03" y="106.3" width="35.43" height="35.43" fill="#ffedc1"/><path d="M 248.03 106.3 A 35.43 35.43 0 0 1 283.46 141.73 L 248.03 141.73" fill="#ffeec3"/><rect x="283.4666666666667" y="70.86666666666667" width="70.86666666666667" height="70.86666666666667" fill="#ffffff"/><rect x="283.47" y="70.87" width="35.43" height="35.43" fill="#6981e1"/><path d="M 283.47 70.87 A 35.43 35.43 0 0 1  318.90000000000003 106.30000000000001 L 283.47 70.87 A 35.43 35.43 0 0 0 318.90000000000003 106.30000000000001" fill="#3f5dd8"/><rect x="318.9" y="70.87" width="35.43" height="35.43" fill="#ffe093"/><path d="M 318.9 70.87 A 35.43 35.43 0 0 0 354.33 106.30000000000001 L 354.33 70.87" fill="#aebbef"/><rect x="283.47" y="106.3" width="35.43" height="35.43" fill="#3051d5"/><path d="M 283.47 141.73 A 35.43 35.43 0 0 0 318.90000000000003 106.3 L 283.47 106.3" fill="#99a9ea"/><rect x="318.9" y="106.3" width="35.43" height="35.43" fill="#8396e6"/><path d="M 318.9 106.3 A 35.43 35.43 0 0 1  354.33 141.73 L 318.9 106.3 A 35.43 35.43 0 0 0 354.33 141.73" fill="#adbaee"/><rect x="354.33" y="70.87" width="70.87" height="70.87" fill="#ffd261"/><path d="M 354.33 141.74 A 70.87 70.87 0 0 1  425.2 70.87 L 425.2 141.74" fill="#fff5dd"/><rect x="425.20000000000005" y="70.86666666666667" width="70.86666666666667" height="70.86666666666667" fill="#ffffff"/><rect x="425.2" y="70.87" width="35.43" height="35.43" fill="#7d91e5"/><path d="M 425.2 106.30000000000001 A 35.43 35.43 0 0 1  460.63 70.87 L 460.63 106.30000000000001" fill="#ffefc6"/><rect x="460.63" y="70.87" width="35.43" height="35.43" fill="#b6c2f0"/><path d="M 460.63 70.87 A 35.43 35.43 0 0 1  496.06 106.30000000000001 L 460.63 70.87 A 35.43 35.43 0 0 0 496.06 106.30000000000001" fill="#778de4"/><rect x="425.2" y="106.3" width="35.43" height="35.43" fill="#fffcf5"/><path d="M 425.2 141.73 A 35.43 35.43 0 0 0 460.63 106.3 L 425.2 106.3" fill="#d7ddf7"/><rect x="460.63" y="106.3" width="35.43" height="35.43" fill="#2e4fd5"/><path d="M 460.63 106.3 A 35.43 35.43 0 0 1 496.06 141.73 L 460.63 141.73" fill="#ffe093"/><rect x="496.0666666666667" y="70.86666666666667" width="70.86666666666667" height="70.86666666666667" fill="#ffffff"/><rect x="496.07" y="70.87" width="35.43" height="35.43" fill="#1b3fd1"/><path d="M 496.07 106.30000000000001 A 35.43 35.43 0 0 1  531.5 70.87 L 531.5 106.30000000000001" fill="#ffd261"/><rect x="531.5" y="70.87" width="35.43" height="35.43" fill="#f9fafe"/><path d="M 531.5 70.87 A 35.43 35.43 0 0 0 566.93 106.30000000000001 L 566.93 70.87" fill="#ffd876"/><rect x="496.07" y="106.3" width="35.43" height="35.43" fill="#ffe093"/><path d="M 496.07 141.73 A 35.43 35.43 0 0 1  531.5 106.3 L 531.5 141.73" fill="#ffd979"/><rect x="531.5" y="106.3" width="35.43" height="35.43" fill="#5f78df"/><path d="M 531.5 141.73 A 35.43 35.43 0 0 1  566.93 106.3 L 566.93 141.73" fill="#6a81e1"/><rect x="566.9333333333334" y="70.86666666666667" width="70.86666666666667" height="70.86666666666667" fill="#ffffff"/><rect x="566.93" y="70.87" width="35.43" height="35.43" fill="#ffde8d"/><path d="M 566.93 70.87 A 35.43 35.43 0 0 1 602.3599999999999 106.30000000000001 L 566.93 106.30000000000001" fill="#b6c2f0"/><rect x="602.37" y="70.87" width="35.43" height="35.43" fill="#8ea0e8"/><path d="M 602.37 70.87 A 35.43 35.43 0 0 1 637.8 106.30000000000001 L 602.37 106.30000000000001" fill="#ffdc85"/><rect x="566.93" y="106.3" width="35.43" height="35.43" fill="#b2bef0"/><path d="M 566.93 106.3 A 35.43 35.43 0 0 1  602.3599999999999 141.73 L 566.93 106.3 A 35.43 35.43 0 0 0 602.3599999999999 141.73" fill="#bec8f2"/><rect x="602.37" y="106.3" width="35.43" height="35.43" fill="#1a3ed1"/><path d="M 602.37 141.73 A 35.43 35.43 0 0 0 637.8 106.3 L 602.37 106.3" fill="#fff6df"/><rect x="637.8" y="70.87" width="70.87" height="70.87" fill="#4765da"/><path d="M 637.8 70.87 A 70.87 70.87 0 0 1 708.67 141.74 L 637.8 141.74" fill="#f6f7fd"/><rect x="708.6666666666667" y="70.86666666666667" width="70.86666666666667" height="70.86666666666667" fill="#ffffff"/><rect x="708.67" y="70.87" width="35.43" height="35.43" fill="#ffe7ac"/><path d="M 708.67 106.30000000000001 A 35.43 35.43 0 0 1  744.0999999999999 70.87 L 744.0999999999999 106.30000000000001" fill="#b1bdef"/><rect x="744.1" y="70.87" width="35.43" height="35.43" fill="#fff0c9"/><path d="M 744.1 70.87 A 35.43 35.43 0 0 1  779.53 106.30000000000001 L 744.1 70.87 A 35.43 35.43 0 0 0 779.53 106.30000000000001" fill="#ffe094"/><rect x="708.67" y="106.3" width="35.43" height="35.43" fill="#183dd0"/><path d="M 708.67 141.73 A 35.43 35.43 0 0 0 744.0999999999999 106.3 L 708.67 106.3" fill="#ffe092"/><rect x="744.1" y="106.3" width="35.43" height="35.43" fill="#4260d9"/><path d="M 744.1 141.73 A 35.43 35.43 0 0 1  779.53 106.3 L 744.1 141.73 A 35.43 35.43 0 0 0 779.53 106.3" fill="#9caceb"/><rect x="779.53" y="70.87" width="70.87" height="70.87" fill="#fff1ce"/><path d="M 779.53 141.74 A 70.87 70.87 0 0 1  850.4 70.87 L 779.53 141.74 A 70.87 70.87 0 0 0 850.4 70.87" fill="#b1beef"/><rect x="0" y="141.73" width="70.87" height="70.87" fill="#ffeec3"/><path d="M 0 141.73 A 70.87 70.87 0 0 1 70.87 212.6 L 0 212.6" fill="#6880e1"/><rect x="70.86666666666667" y="141.73333333333335" width="70.86666666666667" height="70.86666666666667" fill="#ffffff"/><rect x="70.87" y="141.73" width="35.43" height="35.43" fill="#9aaaeb"/><path d="M 70.87 177.16 A 35.43 35.43 0 0 1  106.30000000000001 141.73 L 70.87 177.16 A 35.43 35.43 0 0 0 106.30000000000001 141.73" fill="#ffeab6"/><rect x="106.3" y="141.73" width="35.43" height="35.43" fill="#ffe6a7"/><path d="M 106.3 177.16 A 35.43 35.43 0 0 0 141.73 141.73 L 106.3 141.73" fill="#647de0"/><rect x="70.87" y="177.17" width="35.43" height="35.43" fill="#889be7"/><path d="M 70.87 177.17 A 35.43 35.43 0 0 0 106.30000000000001 212.6 L 106.30000000000001 177.17" fill="#b7c2f0"/><rect x="106.3" y="177.17" width="35.43" height="35.43" fill="#fff0c9"/><path d="M 106.3 212.6 A 35.43 35.43 0 0 0 141.73 177.17 L 106.3 177.17" fill="#c4cdf3"/><rect x="141.73333333333335" y="141.73333333333335" width="70.86666666666667" height="70.86666666666667" fill="#ffffff"/><rect x="141.73" y="141.73" width="35.43" height="35.43" fill="#4b67db"/><path d="M 141.73 141.73 A 35.43 35.43 0 0 1  177.16 177.16 L 141.73 141.73 A 35.43 35.43 0 0 0 177.16 177.16" fill="#fbfcfe"/><rect x="177.17" y="141.73" width="35.43" height="35.43" fill="#fffbf2"/><path d="M 177.17 141.73 A 35.43 35.43 0 0 0 212.6 177.16 L 212.6 141.73" fill="#ffe39c"/><rect x="141.73" y="177.17" width="35.43" height="35.43" fill="#f5f6fd"/><path d="M 141.73 177.17 A 35.43 35.43 0 0 1  177.16 212.6 L 141.73 177.17 A 35.43 35.43 0 0 0 177.16 212.6" fill="#a7b5ed"/><rect x="177.17" y="177.17" width="35.43" height="35.43" fill="#edf0fb"/><path d="M 177.17 177.17 A 35.43 35.43 0 0 1  212.6 212.6 L 177.17 177.17 A 35.43 35.43 0 0 0 212.6 212.6" fill="#ffefc7"/><rect x="212.60000000000002" y="141.73333333333335" width="70.86666666666667" height="70.86666666666667" fill="#ffffff"/><rect x="212.6" y="141.73" width="35.43" height="35.43" fill="#ffdb82"/><path d="M 212.6 141.73 A 35.43 35.43 0 0 1  248.03 177.16 L 212.6 141.73 A 35.43 35.43 0 0 0 248.03 177.16" fill="#7b90e4"/><rect x="248.03" y="141.73" width="35.43" height="35.43" fill="#3858d7"/><path d="M 248.03 141.73 A 35.43 35.43 0 0 0 283.46 177.16 L 283.46 141.73" fill="#b4c0f0"/><rect x="212.6" y="177.17" width="35.43" height="35.43" fill="#ffe299"/><path d="M 212.6 212.6 A 35.43 35.43 0 0 1  248.03 177.17 L 212.6 212.6 A 35.43 35.43 0 0 0 248.03 177.17" fill="#acbaee"/><rect x="248.03" y="177.17" width="35.43" height="35.43" fill="#91a2e9"/><path d="M 248.03 177.17 A 35.43 35.43 0 0 1 283.46 212.6 L 248.03 212.6" fill="#fffaec"/><rect x="283.47" y="141.73" width="70.87" height="70.87" fill="#d8def7"/><path d="M 283.47 141.73 A 70.87 70.87 0 0 1  354.34000000000003 212.6 L 283.47 141.73 A 70.87 70.87 0 0 0 354.34000000000003 212.6" fill="#ffe7ab"/><rect x="354.33333333333337" y="141.73333333333335" width="70.86666666666667" height="70.86666666666667" fill="#ffffff"/><rect x="354.33" y="141.73" width="35.43" height="35.43" fill="#ffeab5"/><path d="M 354.33 177.16 A 35.43 35.43 0 0 1  389.76 141.73 L 389.76 177.16" fill="#fffbf2"/><rect x="389.77" y="141.73" width="35.43" height="35.43" fill="#a5b3ed"/><path d="M 389.77 141.73 A 35.43 35.43 0 0 1  425.2 177.16 L 389.77 141.73 A 35.43 35.43 0 0 0 425.2 177.16" fill="#5470dd"/><rect x="354.33" y="177.17" width="35.43" height="35.43" fill="#fffefc"/><path d="M 354.33 177.17 A 35.43 35.43 0 0 0 389.76 212.6 L 389.76 177.17" fill="#ffd262"/><rect x="389.77" y="177.17" width="35.43" height="35.43" fill="#fffcf3"/><path d="M 389.77 212.6 A 35.43 35.43 0 0 1  425.2 177.17 L 425.2 212.6" fill="#cfd6f5"/><rect x="425.20000000000005" y="141.73333333333335" width="70.86666666666667" height="70.86666666666667" fill="#ffffff"/><rect x="425.2" y="141.73" width="35.43" height="35.43" fill="#fffcf3"/><path d="M 425.2 141.73 A 35.43 35.43 0 0 1  460.63 177.16 L 425.2 141.73 A 35.43 35.43 0 0 0 460.63 177.16" fill="#3f5dd8"/><rect x="460.63" y="141.73" width="35.43" height="35.43" fill="#2548d3"/><path d="M 460.63 141.73 A 35.43 35.43 0 0 0 496.06 177.16 L 496.06 141.73" fill="#e3e7f9"/><rect x="425.2" y="177.17" width="35.43" height="35.43" fill="#183dd0"/><path d="M 425.2 212.6 A 35.43 35.43 0 0 1  460.63 177.17 L 425.2 212.6 A 35.43 35.43 0 0 0 460.63 177.17" fill="#fff2d1"/><rect x="460.63" y="177.17" width="35.43" height="35.43" fill="#fff0cc"/><path d="M 460.63 212.6 A 35.43 35.43 0 0 1  496.06 177.17 L 496.06 212.6" fill="#ffd97c"/><rect x="496.07" y="141.73" width="70.87" height="70.87" fill="#ffe9b1"/><path d="M 496.07 212.6 A 70.87 70.87 0 0 1  566.94 141.73 L 566.94 212.6" fill="#d0d8f6"/><rect x="566.9333333333334" y="141.73333333333335" width="70.86666666666667" height="70.86666666666667" fill="#ffffff"/><rect x="566.93" y="141.73" width="35.43" height="35.43" fill="#ffdb81"/><path d="M 566.93 177.16 A 35.43 35.43 0 0 1  602.3599999999999 141.73 L 566.93 177.16 A 35.43 35.43 0 0 0 602.3599999999999 141.73" fill="#ffdf90"/><rect x="602.37" y="141.73" width="35.43" height="35.43" fill="#ffedc1"/><path d="M 602.37 177.16 A 35.43 35.43 0 0 1  637.8 141.73 L 637.8 177.16" fill="#a9b7ee"/><rect x="566.93" y="177.17" width="35.43" height="35.43" fill="#3656d6"/><path d="M 566.93 177.17 A 35.43 35.43 0 0 1 602.3599999999999 212.6 L 566.93 212.6" fill="#ffe8ae"/><rect x="602.37" y="177.17" width="35.43" height="35.43" fill="#ffe39d"/><path d="M 602.37 212.6 A 35.43 35.43 0 0 1  637.8 177.17 L 602.37 212.6 A 35.43 35.43 0 0 0 637.8 177.17" fill="#e9ecfb"/><rect x="637.8000000000001" y="141.73333333333335" width="70.86666666666667" height="70.86666666666667" fill="#ffffff"/><rect x="637.8" y="141.73" width="35.43" height="35.43" fill="#ffdf8d"/><path d="M 637.8 141.73 A 35.43 35.43 0 0 1 673.2299999999999 177.16 L 637.8 177.16" fill="#ffd56c"/><rect x="673.23" y="141.73" width="35.43" height="35.43" fill="#ffe6a6"/><path d="M 673.23 177.16 A 35.43 35.43 0 0 1  708.66 141.73 L 673.23 177.16 A 35.43 35.43 0 0 0 708.66 141.73" fill="#ffe5a6"/><rect x="637.8" y="177.17" width="35.43" height="35.43" fill="#fffaec"/><path d="M 637.8 212.6 A 35.43 35.43 0 0 0 673.2299999999999 177.17 L 637.8 177.17" fill="#fffcf6"/><rect x="673.23" y="177.17" width="35.43" height="35.43" fill="#ffd15d"/><path d="M 673.23 212.6 A 35.43 35.43 0 0 1  708.66 177.17 L 708.66 212.6" fill="#2f50d5"/><rect x="708.6666666666667" y="141.73333333333335" width="70.86666666666667" height="70.86666666666667" fill="#ffffff"/><rect x="708.67" y="141.73" width="35.43" height="35.43" fill="#657ee0"/><path d="M 708.67 141.73 A 35.43 35.43 0 0 1  744.0999999999999 177.16 L 708.67 141.73 A 35.43 35.43 0 0 0 744.0999999999999 177.16" fill="#405ed8"/><rect x="744.1" y="141.73" width="35.43" height="35.43" fill="#fff1cc"/><path d="M 744.1 177.16 A 35.43 35.43 0 0 0 779.53 141.73 L 744.1 141.73" fill="#3a59d7"/><rect x="708.67" y="177.17" width="35.43" height="35.43" fill="#637cdf"/><path d="M 708.67 212.6 A 35.43 35.43 0 0 1  744.0999999999999 177.17 L 744.0999999999999 212.6" fill="#d8def7"/><rect x="744.1" y="177.17" width="35.43" height="35.43" fill="#ffebba"/><path d="M 744.1 177.17 A 35.43 35.43 0 0 1 779.53 212.6 L 744.1 212.6" fill="#8195e6"/><rect x="779.53" y="141.73" width="70.87" height="70.87" fill="#bfc9f2"/><path d="M 779.53 212.6 A 70.87 70.87 0 0 1  850.4 141.73 L 779.53 212.6 A 70.87 70.87 0 0 0 850.4 141.73" fill="#d6dcf7"/><rect x="0" y="212.6" width="70.87" height="70.87" fill="#c2cbf3"/><path d="M 0 212.6 A 70.87 70.87 0 0 0 70.87 283.47 L 70.87 212.6" fill="#a5b4ed"/><rect x="70.87" y="212.6" width="70.87" height="70.87" fill="#ffeab7"/><path d="M 70.87 283.47 A 70.87 70.87 0 0 1  141.74 212.6 L 70.87 283.47 A 70.87 70.87 0 0 0 141.74 212.6" fill="#f9fafe"/><rect x="141.73" y="212.6" width="70.87" height="70.87" fill="#fff9ea"/><path d="M 141.73 212.6 A 70.87 70.87 0 0 1  212.6 283.47 L 141.73 212.6 A 70.87 70.87 0 0 0 212.6 283.47" fill="#fffefb"/><rect x="212.60000000000002" y="212.60000000000002" width="70.86666666666667" height="70.86666666666667" fill="#ffffff"/><rect x="212.6" y="212.6" width="35.43" height="35.43" fill="#bdc7f2"/><path d="M 212.6 248.03 A 35.43 35.43 0 0 1  248.03 212.6 L 212.6 248.03 A 35.43 35.43 0 0 0 248.03 212.6" fill="#ffe8af"/><rect x="248.03" y="212.6" width="35.43" height="35.43" fill="#3151d5"/><path d="M 248.03 212.6 A 35.43 35.43 0 0 1 283.46 248.03 L 248.03 248.03" fill="#1f42d2"/><rect x="212.6" y="248.03" width="35.43" height="35.43" fill="#ffdc84"/><path d="M 212.6 248.03 A 35.43 35.43 0 0 0 248.03 283.46 L 248.03 248.03" fill="#fff2d1"/><rect x="248.03" y="248.03" width="35.43" height="35.43" fill="#fffefd"/><path d="M 248.03 248.03 A 35.43 35.43 0 0 0 283.46 283.46 L 283.46 248.03" fill="#cbd3f4"/><rect x="283.47" y="212.6" width="70.87" height="70.87" fill="#dbe1f8"/><path d="M 283.47 212.6 A 70.87 70.87 0 0 1  354.34000000000003 283.47 L 283.47 212.6 A 70.87 70.87 0 0 0 354.34000000000003 283.47" fill="#788ee4"/><rect x="354.33" y="212.6" width="70.87" height="70.87" fill="#2245d2"/><path d="M 354.33 283.47 A 70.87 70.87 0 0 0 425.2 212.6 L 354.33 212.6" fill="#f6f7fd"/><rect x="425.2" y="212.6" width="70.87" height="70.87" fill="#ffe093"/><path d="M 425.2 283.47 A 70.87 70.87 0 0 1  496.07 212.6 L 425.2 283.47 A 70.87 70.87 0 0 0 496.07 212.6" fill="#fff9ea"/><rect x="496.0666666666667" y="212.60000000000002" width="70.86666666666667" height="70.86666666666667" fill="#ffffff"/><rect x="496.07" y="212.6" width="35.43" height="35.43" fill="#8b9de8"/><path d="M 496.07 248.03 A 35.43 35.43 0 0 0 531.5 212.6 L 496.07 212.6" fill="#e3e7f9"/><rect x="531.5" y="212.6" width="35.43" height="35.43" fill="#ffe8ae"/><path d="M 531.5 212.6 A 35.43 35.43 0 0 1  566.93 248.03 L 531.5 212.6 A 35.43 35.43 0 0 0 566.93 248.03" fill="#d0d7f5"/><rect x="496.07" y="248.03" width="35.43" height="35.43" fill="#6079df"/><path d="M 496.07 248.03 A 35.43 35.43 0 0 1  531.5 283.46 L 496.07 248.03 A 35.43 35.43 0 0 0 531.5 283.46" fill="#ffd262"/><rect x="531.5" y="248.03" width="35.43" height="35.43" fill="#2749d3"/><path d="M 531.5 248.03 A 35.43 35.43 0 0 1  566.93 283.46 L 531.5 248.03 A 35.43 35.43 0 0 0 566.93 283.46" fill="#ffeec2"/><rect x="566.9333333333334" y="212.60000000000002" width="70.86666666666667" height="70.86666666666667" fill="#ffffff"/><rect x="566.93" y="212.6" width="35.43" height="35.43" fill="#7b90e4"/><path d="M 566.93 248.03 A 35.43 35.43 0 0 1  602.3599999999999 212.6 L 602.3599999999999 248.03" fill="#6a82e1"/><rect x="602.37" y="212.6" width="35.43" height="35.43" fill="#d4dbf6"/><path d="M 602.37 212.6 A 35.43 35.43 0 0 1  637.8 248.03 L 602.37 212.6 A 35.43 35.43 0 0 0 637.8 248.03" fill="#526ddc"/><rect x="566.93" y="248.03" width="35.43" height="35.43" fill="#8195e6"/><path d="M 566.93 283.46 A 35.43 35.43 0 0 1  602.3599999999999 248.03 L 566.93 283.46 A 35.43 35.43 0 0 0 602.3599999999999 248.03" fill="#ffe39e"/><rect x="602.37" y="248.03" width="35.43" height="35.43" fill="#3b5ad8"/><path d="M 602.37 283.46 A 35.43 35.43 0 0 1  637.8 248.03 L 602.37 283.46 A 35.43 35.43 0 0 0 637.8 248.03" fill="#ffdd89"/><rect x="637.8000000000001" y="212.60000000000002" width="70.86666666666667" height="70.86666666666667" fill="#ffffff"/><rect x="637.8" y="212.6" width="35.43" height="35.43" fill="#b3bff0"/><path d="M 637.8 212.6 A 35.43 35.43 0 0 0 673.2299999999999 248.03 L 673.2299999999999 212.6" fill="#c8d1f4"/><rect x="673.23" y="212.6" width="35.43" height="35.43" fill="#d2d9f6"/><path d="M 673.23 248.03 A 35.43 35.43 0 0 1  708.66 212.6 L 708.66 248.03" fill="#ffde8a"/><rect x="637.8" y="248.03" width="35.43" height="35.43" fill="#8b9ee8"/><path d="M 637.8 248.03 A 35.43 35.43 0 0 0 673.2299999999999 283.46 L 673.2299999999999 248.03" fill="#ffd263"/><rect x="673.23" y="248.03" width="35.43" height="35.43" fill="#2749d3"/><path d="M 673.23 248.03 A 35.43 35.43 0 0 1 708.66 283.46 L 673.23 283.46" fill="#ffdc84"/><rect x="708.6666666666667" y="212.60000000000002" width="70.86666666666667" height="70.86666666666667" fill="#ffffff"/><rect x="708.67" y="212.6" width="35.43" height="35.43" fill="#ffedc0"/><path d="M 708.67 212.6 A 35.43 35.43 0 0 1  744.0999999999999 248.03 L 708.67 212.6 A 35.43 35.43 0 0 0 744.0999999999999 248.03" fill="#ffeec2"/><rect x="744.1" y="212.6" width="35.43" height="35.43" fill="#ffd46a"/><path d="M 744.1 212.6 A 35.43 35.43 0 0 1 779.53 248.03 L 744.1 248.03" fill="#7389e3"/><rect x="708.67" y="248.03" width="35.43" height="35.43" fill="#ffdb80"/><path d="M 708.67 248.03 A 35.43 35.43 0 0 0 744.0999999999999 283.46 L 744.0999999999999 248.03" fill="#ffd05c"/><rect x="744.1" y="248.03" width="35.43" height="35.43" fill="#fff2d3"/><path d="M 744.1 283.46 A 35.43 35.43 0 0 0 779.53 248.03 L 744.1 248.03" fill="#94a5e9"/><rect x="779.5333333333334" y="212.60000000000002" width="70.86666666666667" height="70.86666666666667" fill="#ffffff"/><rect x="779.53" y="212.6" width="35.43" height="35.43" fill="#3051d5"/><path d="M 779.53 248.03 A 35.43 35.43 0 0 1  814.9599999999999 212.6 L 779.53 248.03 A 35.43 35.43 0 0 0 814.9599999999999 212.6" fill="#c3cdf3"/><rect x="814.97" y="212.6" width="35.43" height="35.43" fill="#ffe6a6"/><path d="M 814.97 212.6 A 35.43 35.43 0 0 1  850.4 248.03 L 814.97 212.6 A 35.43 35.43 0 0 0 850.4 248.03" fill="#879ae7"/><rect x="779.53" y="248.03" width="35.43" height="35.43" fill="#3757d7"/><path d="M 779.53 283.46 A 35.43 35.43 0 0 1  814.9599999999999 248.03 L 814.9599999999999 283.46" fill="#fff7e2"/><rect x="814.97" y="248.03" width="35.43" height="35.43" fill="#ffdf91"/><path d="M 814.97 248.03 A 35.43 35.43 0 0 1  850.4 283.46 L 814.97 248.03 A 35.43 35.43 0 0 0 850.4 283.46" fill="#2649d3"/><rect x="0" y="283.4666666666667" width="70.86666666666667" height="70.86666666666667" fill="#ffffff"/><rect x="0" y="283.47" width="35.43" height="35.43" fill="#ffedbf"/><path d="M 0 318.90000000000003 A 35.43 35.43 0 0 1  35.43 283.47 L 0 318.90000000000003 A 35.43 35.43 0 0 0 35.43 283.47" fill="#7c91e5"/><rect x="35.43" y="283.47" width="35.43" height="35.43" fill="#ffd56d"/><path d="M 35.43 283.47 A 35.43 35.43 0 0 0 70.86 318.90000000000003 L 70.86 283.47" fill="#f0f2fc"/><rect x="0" y="318.9" width="35.43" height="35.43" fill="#f6f8fd"/><path d="M 0 318.9 A 35.43 35.43 0 0 1 35.43 354.33 L 0 354.33" fill="#fffffd"/><rect x="35.43" y="318.9" width="35.43" height="35.43" fill="#2d4ed5"/><path d="M 35.43 318.9 A 35.43 35.43 0 0 0 70.86 354.33 L 70.86 318.9" fill="#ffe094"/><rect x="70.86666666666667" y="283.4666666666667" width="70.86666666666667" height="70.86666666666667" fill="#ffffff"/><rect x="70.87" y="283.47" width="35.43" height="35.43" fill="#e9ecfb"/><path d="M 70.87 283.47 A 35.43 35.43 0 0 0 106.30000000000001 318.90000000000003 L 106.30000000000001 283.47" fill="#ffe5a4"/><rect x="106.3" y="283.47" width="35.43" height="35.43" fill="#8598e6"/><path d="M 106.3 283.47 A 35.43 35.43 0 0 1 141.73 318.90000000000003 L 106.3 318.90000000000003" fill="#b8c3f1"/><rect x="70.87" y="318.9" width="35.43" height="35.43" fill="#ffe4a1"/><path d="M 70.87 318.9 A 35.43 35.43 0 0 1 106.30000000000001 354.33 L 70.87 354.33" fill="#ffd15d"/><rect x="106.3" y="318.9" width="35.43" height="35.43" fill="#ffecbe"/><path d="M 106.3 354.33 A 35.43 35.43 0 0 1  141.73 318.9 L 141.73 354.33" fill="#ffd468"/><rect x="141.73333333333335" y="283.4666666666667" width="70.86666666666667" height="70.86666666666667" fill="#ffffff"/><rect x="141.73" y="283.47" width="35.43" height="35.43" fill="#ffe299"/><path d="M 141.73 318.90000000000003 A 35.43 35.43 0 0 0 177.16 283.47 L 141.73 283.47" fill="#5671dd"/><rect x="177.17" y="283.47" width="35.43" height="35.43" fill="#ffd774"/><path d="M 177.17 318.90000000000003 A 35.43 35.43 0 0 1  212.6 283.47 L 177.17 318.90000000000003 A 35.43 35.43 0 0 0 212.6 283.47" fill="#2044d2"/><rect x="141.73" y="318.9" width="35.43" height="35.43" fill="#ffde8d"/><path d="M 141.73 354.33 A 35.43 35.43 0 0 1  177.16 318.9 L 141.73 354.33 A 35.43 35.43 0 0 0 177.16 318.9" fill="#ffdd87"/><rect x="177.17" y="318.9" width="35.43" height="35.43" fill="#ffe39d"/><path d="M 177.17 354.33 A 35.43 35.43 0 0 0 212.6 318.9 L 177.17 318.9" fill="#ffeec3"/><rect x="212.60000000000002" y="283.4666666666667" width="70.86666666666667" height="70.86666666666667" fill="#ffffff"/><rect x="212.6" y="283.47" width="35.43" height="35.43" fill="#ffd876"/><path d="M 212.6 283.47 A 35.43 35.43 0 0 1  248.03 318.90000000000003 L 212.6 283.47 A 35.43 35.43 0 0 0 248.03 318.90000000000003" fill="#b6c2f0"/><rect x="248.03" y="283.47" width="35.43" height="35.43" fill="#798ee4"/><path d="M 248.03 318.90000000000003 A 35.43 35.43 0 0 0 283.46 283.47 L 248.03 283.47" fill="#2548d3"/><rect x="212.6" y="318.9" width="35.43" height="35.43" fill="#ffe299"/><path d="M 212.6 354.33 A 35.43 35.43 0 0 0 248.03 318.9 L 212.6 318.9" fill="#2547d3"/><rect x="248.03" y="318.9" width="35.43" height="35.43" fill="#ffe8ad"/><path d="M 248.03 354.33 A 35.43 35.43 0 0 1  283.46 318.9 L 248.03 354.33 A 35.43 35.43 0 0 0 283.46 318.9" fill="#ffe4a1"/><rect x="283.4666666666667" y="283.4666666666667" width="70.86666666666667" height="70.86666666666667" fill="#ffffff"/><rect x="283.47" y="283.47" width="35.43" height="35.43" fill="#fff5de"/><path d="M 283.47 283.47 A 35.43 35.43 0 0 0 318.90000000000003 318.90000000000003 L 318.90000000000003 283.47" fill="#d2d9f6"/><rect x="318.9" y="283.47" width="35.43" height="35.43" fill="#ffde8d"/><path d="M 318.9 283.47 A 35.43 35.43 0 0 1  354.33 318.90000000000003 L 318.9 283.47 A 35.43 35.43 0 0 0 354.33 318.90000000000003" fill="#ffeab6"/><rect x="283.47" y="318.9" width="35.43" height="35.43" fill="#1c40d1"/><path d="M 283.47 354.33 A 35.43 35.43 0 0 1  318.90000000000003 318.9 L 283.47 354.33 A 35.43 35.43 0 0 0 318.90000000000003 318.9" fill="#7f94e5"/><rect x="318.9" y="318.9" width="35.43" height="35.43" fill="#ffecbd"/><path d="M 318.9 354.33 A 35.43 35.43 0 0 0 354.33 318.9 L 318.9 318.9" fill="#c2cbf3"/><rect x="354.33333333333337" y="283.4666666666667" width="70.86666666666667" height="70.86666666666667" fill="#ffffff"/><rect x="354.33" y="283.47" width="35.43" height="35.43" fill="#ffe6a9"/><path d="M 354.33 283.47 A 35.43 35.43 0 0 1  389.76 318.90000000000003 L 354.33 283.47 A 35.43 35.43 0 0 0 389.76 318.90000000000003" fill="#fffffe"/><rect x="389.77" y="283.47" width="35.43" height="35.43" fill="#c9d2f4"/><path d="M 389.77 283.47 A 35.43 35.43 0 0 1  425.2 318.90000000000003 L 389.77 283.47 A 35.43 35.43 0 0 0 425.2 318.90000000000003" fill="#ffde8c"/><rect x="354.33" y="318.9" width="35.43" height="35.43" fill="#ffd878"/><path d="M 354.33 354.33 A 35.43 35.43 0 0 0 389.76 318.9 L 354.33 318.9" fill="#fff1cf"/><rect x="389.77" y="318.9" width="35.43" height="35.43" fill="#1a3ed1"/><path d="M 389.77 318.9 A 35.43 35.43 0 0 1 425.2 354.33 L 389.77 354.33" fill="#516ddc"/><rect x="425.2" y="283.47" width="70.87" height="70.87" fill="#b8c3f1"/><path d="M 425.2 283.47 A 70.87 70.87 0 0 1 496.07 354.34000000000003 L 425.2 354.34000000000003" fill="#f9fafe"/><rect x="496.07" y="283.47" width="70.87" height="70.87" fill="#4966da"/><path d="M 496.07 354.34000000000003 A 70.87 70.87 0 0 1  566.94 283.47 L 496.07 354.34000000000003 A 70.87 70.87 0 0 0 566.94 283.47" fill="#ffd469"/><rect x="566.93" y="283.47" width="70.87" height="70.87" fill="#3c5bd8"/><path d="M 566.93 354.34000000000003 A 70.87 70.87 0 0 0 637.8 283.47 L 566.93 283.47" fill="#dbe0f8"/><rect x="637.8000000000001" y="283.4666666666667" width="70.86666666666667" height="70.86666666666667" fill="#ffffff"/><rect x="637.8" y="283.47" width="35.43" height="35.43" fill="#3d5cd8"/><path d="M 637.8 318.90000000000003 A 35.43 35.43 0 0 0 673.2299999999999 283.47 L 637.8 283.47" fill="#e3e7f9"/><rect x="673.23" y="283.47" width="35.43" height="35.43" fill="#ffdf8e"/><path d="M 673.23 283.47 A 35.43 35.43 0 0 1  708.66 318.90000000000003 L 673.23 283.47 A 35.43 35.43 0 0 0 708.66 318.90000000000003" fill="#516ddc"/><rect x="637.8" y="318.9" width="35.43" height="35.43" fill="#fffdf8"/><path d="M 637.8 318.9 A 35.43 35.43 0 0 1 673.2299999999999 354.33 L 637.8 354.33" fill="#fff4da"/><rect x="673.23" y="318.9" width="35.43" height="35.43" fill="#ffe196"/><path d="M 673.23 354.33 A 35.43 35.43 0 0 1  708.66 318.9 L 708.66 354.33" fill="#d9dff7"/><rect x="708.6666666666667" y="283.4666666666667" width="70.86666666666667" height="70.86666666666667" fill="#ffffff"/><rect x="708.67" y="283.47" width="35.43" height="35.43" fill="#3d5cd8"/><path d="M 708.67 318.90000000000003 A 35.43 35.43 0 0 1  744.0999999999999 283.47 L 744.0999999999999 318.90000000000003" fill="#c7d0f4"/><rect x="744.1" y="283.47" width="35.43" height="35.43" fill="#1c40d1"/><path d="M 744.1 283.47 A 35.43 35.43 0 0 1 779.53 318.90000000000003 L 744.1 318.90000000000003" fill="#fff8e5"/><rect x="708.67" y="318.9" width="35.43" height="35.43" fill="#dae0f8"/><path d="M 708.67 354.33 A 35.43 35.43 0 0 1  744.0999999999999 318.9 L 744.0999999999999 354.33" fill="#fff9ea"/><rect x="744.1" y="318.9" width="35.43" height="35.43" fill="#f1f3fc"/><path d="M 744.1 318.9 A 35.43 35.43 0 0 1  779.53 354.33 L 744.1 318.9 A 35.43 35.43 0 0 0 779.53 354.33" fill="#fff2d3"/><rect x="779.5333333333334" y="283.4666666666667" width="70.86666666666667" height="70.86666666666667" fill="#ffffff"/><rect x="779.53" y="283.47" width="35.43" height="35.43" fill="#6079df"/><path d="M 779.53 283.47 A 35.43 35.43 0 0 1  814.9599999999999 318.90000000000003 L 779.53 283.47 A 35.43 35.43 0 0 0 814.9599999999999 318.90000000000003" fill="#a6b4ed"/><rect x="814.97" y="283.47" width="35.43" height="35.43" fill="#ffeec2"/><path d="M 814.97 318.90000000000003 A 35.43 35.43 0 0 1  850.4 283.47 L 814.97 318.90000000000003 A 35.43 35.43 0 0 0 850.4 283.47" fill="#dfe4f9"/><rect x="779.53" y="318.9" width="35.43" height="35.43" fill="#748ae3"/><path d="M 779.53 354.33 A 35.43 35.43 0 0 0 814.9599999999999 318.9 L 779.53 318.9" fill="#fff1cc"/><rect x="814.97" y="318.9" width="35.43" height="35.43" fill="#3051d5"/><path d="M 814.97 354.33 A 35.43 35.43 0 0 1  850.4 318.9 L 814.97 354.33 A 35.43 35.43 0 0 0 850.4 318.9" fill="#fffdf9"/><rect x="0" y="354.33" width="70.87" height="70.87" fill="#97a8ea"/><path d="M 0 425.2 A 70.87 70.87 0 0 1  70.87 354.33 L 0 425.2 A 70.87 70.87 0 0 0 70.87 354.33" fill="#506cdc"/><rect x="70.86666666666667" y="354.33333333333337" width="70.86666666666667" height="70.86666666666667" fill="#ffffff"/><rect x="70.87" y="354.33" width="35.43" height="35.43" fill="#d0d8f6"/><path d="M 70.87 354.33 A 35.43 35.43 0 0 1  106.30000000000001 389.76 L 70.87 354.33 A 35.43 35.43 0 0 0 106.30000000000001 389.76" fill="#4966da"/><rect x="106.3" y="354.33" width="35.43" height="35.43" fill="#fff7e4"/><path d="M 106.3 354.33 A 35.43 35.43 0 0 1 141.73 389.76 L 106.3 389.76" fill="#ffdb80"/><rect x="70.87" y="389.77" width="35.43" height="35.43" fill="#feffff"/><path d="M 70.87 389.77 A 35.43 35.43 0 0 1 106.30000000000001 425.2 L 70.87 425.2" fill="#fff2d3"/><rect x="106.3" y="389.77" width="35.43" height="35.43" fill="#ffedc0"/><path d="M 106.3 425.2 A 35.43 35.43 0 0 1  141.73 389.77 L 106.3 425.2 A 35.43 35.43 0 0 0 141.73 389.77" fill="#526edc"/><rect x="141.73333333333335" y="354.33333333333337" width="70.86666666666667" height="70.86666666666667" fill="#ffffff"/><rect x="141.73" y="354.33" width="35.43" height="35.43" fill="#ffe7ac"/><path d="M 141.73 389.76 A 35.43 35.43 0 0 0 177.16 354.33 L 141.73 354.33" fill="#677fe0"/><rect x="177.17" y="354.33" width="35.43" height="35.43" fill="#ffde8b"/><path d="M 177.17 389.76 A 35.43 35.43 0 0 0 212.6 354.33 L 177.17 354.33" fill="#ffeab6"/><rect x="141.73" y="389.77" width="35.43" height="35.43" fill="#ffefc9"/><path d="M 141.73 425.2 A 35.43 35.43 0 0 0 177.16 389.77 L 141.73 389.77" fill="#e4e8f9"/><rect x="177.17" y="389.77" width="35.43" height="35.43" fill="#f8f9fe"/><path d="M 177.17 389.77 A 35.43 35.43 0 0 1  212.6 425.2 L 177.17 389.77 A 35.43 35.43 0 0 0 212.6 425.2" fill="#ffebb8"/><rect x="212.60000000000002" y="354.33333333333337" width="70.86666666666667" height="70.86666666666667" fill="#ffffff"/><rect x="212.6" y="354.33" width="35.43" height="35.43" fill="#ffcf58"/><path d="M 212.6 354.33 A 35.43 35.43 0 0 0 248.03 389.76 L 248.03 354.33" fill="#ffd15e"/><rect x="248.03" y="354.33" width="35.43" height="35.43" fill="#ffd878"/><path d="M 248.03 389.76 A 35.43 35.43 0 0 1  283.46 354.33 L 283.46 389.76" fill="#ffde8a"/><rect x="212.6" y="389.77" width="35.43" height="35.43" fill="#8b9de8"/><path d="M 212.6 425.2 A 35.43 35.43 0 0 1  248.03 389.77 L 212.6 425.2 A 35.43 35.43 0 0 0 248.03 389.77" fill="#8498e6"/><rect x="248.03" y="389.77" width="35.43" height="35.43" fill="#8ea0e8"/><path d="M 248.03 389.77 A 35.43 35.43 0 0 1  283.46 425.2 L 248.03 389.77 A 35.43 35.43 0 0 0 283.46 425.2" fill="#fff7e3"/><rect x="283.47" y="354.33" width="70.87" height="70.87" fill="#ffe4a2"/><path d="M 283.47 354.33 A 70.87 70.87 0 0 1 354.34000000000003 425.2 L 283.47 425.2" fill="#fffefc"/><rect x="354.33333333333337" y="354.33333333333337" width="70.86666666666667" height="70.86666666666667" fill="#ffffff"/><rect x="354.33" y="354.33" width="35.43" height="35.43" fill="#ffeec3"/><path d="M 354.33 354.33 A 35.43 35.43 0 0 1 389.76 389.76 L 354.33 389.76" fill="#ffebbb"/><rect x="389.77" y="354.33" width="35.43" height="35.43" fill="#b8c3f1"/><path d="M 389.77 389.76 A 35.43 35.43 0 0 1  425.2 354.33 L 425.2 389.76" fill="#ffffff"/><rect x="354.33" y="389.77" width="35.43" height="35.43" fill="#a1b0ec"/><path d="M 354.33 425.2 A 35.43 35.43 0 0 1  389.76 389.77 L 354.33 425.2 A 35.43 35.43 0 0 0 389.76 389.77" fill="#fffdf9"/><rect x="389.77" y="389.77" width="35.43" height="35.43" fill="#3b5ad7"/><path d="M 389.77 425.2 A 35.43 35.43 0 0 1  425.2 389.77 L 425.2 425.2" fill="#c1cbf2"/><rect x="425.20000000000005" y="354.33333333333337" width="70.86666666666667" height="70.86666666666667" fill="#ffffff"/><rect x="425.2" y="354.33" width="35.43" height="35.43" fill="#d6ddf7"/><path d="M 425.2 354.33 A 35.43 35.43 0 0 0 460.63 389.76 L 460.63 354.33" fill="#f8f9fe"/><rect x="460.63" y="354.33" width="35.43" height="35.43" fill="#fcfcfe"/><path d="M 460.63 389.76 A 35.43 35.43 0 0 1  496.06 354.33 L 496.06 389.76" fill="#fff4d9"/><rect x="425.2" y="389.77" width="35.43" height="35.43" fill="#4260d9"/><path d="M 425.2 389.77 A 35.43 35.43 0 0 1 460.63 425.2 L 425.2 425.2" fill="#c5cef3"/><rect x="460.63" y="389.77" width="35.43" height="35.43" fill="#fffdf9"/><path d="M 460.63 425.2 A 35.43 35.43 0 0 1  496.06 389.77 L 496.06 425.2" fill="#ffdd89"/><rect x="496.07" y="354.33" width="70.87" height="70.87" fill="#a0afec"/><path d="M 496.07 425.2 A 70.87 70.87 0 0 1  566.94 354.33 L 566.94 425.2" fill="#adbaef"/><rect x="566.93" y="354.33" width="70.87" height="70.87" fill="#6c84e1"/><path d="M 566.93 354.33 A 70.87 70.87 0 0 0 637.8 425.2 L 637.8 354.33" fill="#ffe7ac"/><rect x="637.8000000000001" y="354.33333333333337" width="70.86666666666667" height="70.86666666666667" fill="#ffffff"/><rect x="637.8" y="354.33" width="35.43" height="35.43" fill="#d7ddf7"/><path d="M 637.8 354.33 A 35.43 35.43 0 0 1  673.2299999999999 389.76 L 637.8 354.33 A 35.43 35.43 0 0 0 673.2299999999999 389.76" fill="#ffecbd"/><rect x="673.23" y="354.33" width="35.43" height="35.43" fill="#3555d6"/><path d="M 673.23 389.76 A 35.43 35.43 0 0 1  708.66 354.33 L 673.23 389.76 A 35.43 35.43 0 0 0 708.66 354.33" fill="#9eaeeb"/><rect x="637.8" y="389.77" width="35.43" height="35.43" fill="#adbaee"/><path d="M 637.8 425.2 A 35.43 35.43 0 0 1  673.2299999999999 389.77 L 673.2299999999999 425.2" fill="#ffd469"/><rect x="673.23" y="389.77" width="35.43" height="35.43" fill="#ffe194"/><path d="M 673.23 425.2 A 35.43 35.43 0 0 1  708.66 389.77 L 673.23 425.2 A 35.43 35.43 0 0 0 708.66 389.77" fill="#a3b1ec"/><rect x="708.67" y="354.33" width="70.87" height="70.87" fill="#ffe6a7"/><path d="M 708.67 354.33 A 70.87 70.87 0 0 1 779.54 425.2 L 708.67 425.2" fill="#2245d3"/><rect x="779.53" y="354.33" width="70.87" height="70.87" fill="#ffd97c"/><path d="M 779.53 354.33 A 70.87 70.87 0 0 1 850.4 425.2 L 779.53 425.2" fill="#ffebba"/></g></svg>