<?xml version="1.0" standalone="no"?><svg xmlns:xlink="http://www.w3.org/1999/xlink" xmlns="http://www.w3.org/2000/svg" viewBox="0 0 1000 562.5082682894563" preserveAspectRatio="xMaxYMax slice"><g transform="scale(1.3229263130043658)"><rect x="0" y="0" width="755.9111111111112" height="425.20000000000005" fill="#ffffff"/><polygon points="0,0 47.24,0 0,47.24" fill="#ffd772"/><rect x="47.24444444444445" y="0" width="47.24444444444445" height="47.24444444444445" fill="#ffffff"/><polygon points="47.24,0 70.86,0 47.24,23.62" fill="#c1cbf3"/><polygon points="94.49000000000001,0 94.49000000000001,23.62 70.87,23.62" fill="#3958d7"/><path d="M 47.24 47.24 A 23.62 23.62 0 0 1  70.86 23.62 L 47.24 47.24 A 23.62 23.62 0 0 0 70.86 23.62" fill="#4461d9"/><polygon points="70.87,23.62 94.49000000000001,23.62 70.87,47.24" fill="#2144d2"/><path d="M 94.49 47.24 A 47.24 47.24 0 0 1  141.73 0 L 94.49 47.24 A 47.24 47.24 0 0 0 141.73 0" fill="#9caceb"/><polygon points="141.73,0 188.97,47.24 141.73,47.24" fill="#536edc"/><rect x="188.9777777777778" y="0" width="47.24444444444445" height="47.24444444444445" fill="#ffffff"/><polygon points="212.6,0 212.6,23.62 188.98,23.62" fill="#fffaed"/><path d="M 212.6 23.62 A 23.62 23.62 0 0 0 236.22 0 L 212.6 0" fill="#fbfcfe"/><path d="M 188.98 23.62 A 23.62 23.62 0 0 1 212.6 47.24 L 188.98 47.24" fill="#ffd468"/><path d="M 212.6 47.24 A 23.62 23.62 0 0 1  236.22 23.62 L 236.22 47.24" fill="#fff5da"/><rect x="236.22222222222223" y="0" width="47.24444444444445" height="47.24444444444445" fill="#ffffff"/><path d="M 236.22 0 A 23.62 23.62 0 0 0 259.84 23.62 L 259.84 0" fill="#2d4fd5"/><path d="M 259.84 0 A 23.62 23.62 0 0 1 283.46 23.62 L 259.84 23.62" fill="#ffdb82"/><path d="M 236.22 47.24 A 23.62 23.62 0 0 1  259.84 23.62 L 259.84 47.24" fill="#f3f5fd"/><path d="M 259.84 23.62 A 23.62 23.62 0 0 1 283.46 47.24 L 259.84 47.24" fill="#fffcf6"/><path d="M 283.47 47.24 A 47.24 47.24 0 0 0 330.71000000000004 0 L 283.47 0" fill="#e0e5f9"/><polygon points="330.71,0 377.95,47.24 330.71,47.24" fill="#fff2d2"/><polygon points="377.96,0 425.2,47.24 377.96,47.24" fill="#ffd367"/><polygon points="425.2,0 472.44,0 425.2,47.24" fill="#2f50d5"/><path d="M 472.44 47.24 A 47.24 47.24 0 0 1  519.68 0 L 472.44 47.24 A 47.24 47.24 0 0 0 519.68 0" fill="#c4cef3"/><polygon points="519.69,0 566.9300000000001,47.24 519.69,47.24" fill="#2346d3"/><polygon points="566.93,0 614.17,47.24 566.93,47.24" fill="#ffd56c"/><rect x="614.1777777777778" y="0" width="47.24444444444445" height="47.24444444444445" fill="#ffffff"/><polygon points="614.18,0 637.8,23.62 614.18,23.62" fill="#ffd876"/><polygon points="637.8,0 661.42,0 661.42,23.62" fill="#ffd469"/><polygon points="637.8,23.62 637.8,47.24 614.18,47.24" fill="#fff7e4"/><polygon points="637.8,23.62 661.42,23.62 637.8,47.24" fill="#ffe195"/><polygon points="661.42,0 708.66,0 661.42,47.24" fill="#ffd97b"/><path d="M 708.67 47.24 A 47.24 47.24 0 0 1  755.91 0 L 755.91 47.24" fill="#fffdf9"/><polygon points="0,47.24 47.24,47.24 0,94.48" fill="#ffeec5"/><path d="M 47.24 47.24 A 47.24 47.24 0 0 0 94.48 94.48 L 94.48 47.24" fill="#ffe9b1"/><path d="M 94.49 94.48 A 47.24 47.24 0 0 0 141.73 47.24 L 94.49 47.24" fill="#d2d9f6"/><polygon points="141.73,47.24 188.97,94.48 141.73,94.48" fill="#dfe4f8"/><polygon points="236.22,47.24 236.22,94.48 188.98,94.48" fill="#3756d7"/><polygon points="236.22,47.24 283.46,94.48 236.22,94.48" fill="#ffefc9"/><polygon points="283.47,47.24 330.71000000000004,47.24 330.71000000000004,94.48" fill="#fffbef"/><path d="M 330.71 94.48 A 47.24 47.24 0 0 0 377.95 47.24 L 330.71 47.24" fill="#ffe29b"/><rect x="377.9555555555556" y="47.24444444444445" width="47.24444444444445" height="47.24444444444445" fill="#ffffff"/><polygon points="401.58,47.24 401.58,70.86 377.96,70.86" fill="#ffe298"/><path d="M 401.58 70.86 A 23.62 23.62 0 0 1  425.2 47.24 L 401.58 70.86 A 23.62 23.62 0 0 0 425.2 47.24" fill="#ffdc84"/><path d="M 377.96 94.49000000000001 A 23.62 23.62 0 0 0 401.58 70.87 L 377.96 70.87" fill="#ffdb81"/><polygon points="425.2,70.87 425.2,94.49000000000001 401.58,94.49000000000001" fill="#fff5dc"/><path d="M 425.2 47.24 A 47.24 47.24 0 0 1 472.44 94.48 L 425.2 94.48" fill="#ffedbf"/><path d="M 472.44 94.48 A 47.24 47.24 0 0 0 519.68 47.24 L 472.44 47.24" fill="#768ce3"/><polygon points="519.69,47.24 566.9300000000001,94.48 519.69,94.48" fill="#ffeec5"/><rect x="566.9333333333334" y="47.24444444444445" width="47.24444444444445" height="47.24444444444445" fill="#ffffff"/><path d="M 566.93 47.24 A 23.62 23.62 0 0 1 590.55 70.86 L 566.93 70.86" fill="#bac5f1"/><path d="M 590.56 47.24 A 23.62 23.62 0 0 1  614.18 70.86 L 590.56 47.24 A 23.62 23.62 0 0 0 614.18 70.86" fill="#fffcf4"/><path d="M 566.93 70.87 A 23.62 23.62 0 0 1  590.55 94.49000000000001 L 566.93 70.87 A 23.62 23.62 0 0 0 590.55 94.49000000000001" fill="#d8def7"/><polygon points="590.56,70.87 614.18,94.49000000000001 590.56,94.49000000000001" fill="#526ddc"/><path d="M 614.18 47.24 A 47.24 47.24 0 0 0 661.42 94.48 L 661.42 47.24" fill="#ffd774"/><polygon points="661.42,47.24 708.66,47.24 708.66,94.48" fill="#ffd160"/><polygon points="708.67,47.24 755.91,47.24 708.67,94.48" fill="#ffe197"/><polygon points="0,94.49 47.24,94.49 47.24,141.73" fill="#f6f8fd"/><rect x="47.24444444444445" y="94.4888888888889" width="47.24444444444445" height="47.24444444444445" fill="#ffffff"/><path d="M 47.24 94.49 A 23.62 23.62 0 0 1  70.86 118.11 L 47.24 94.49 A 23.62 23.62 0 0 0 70.86 118.11" fill="#ffe6a7"/><path d="M 70.87 94.49 A 23.62 23.62 0 0 1 94.49000000000001 118.11 L 70.87 118.11" fill="#e3e7f9"/><polygon points="47.24,118.11 70.86,118.11 47.24,141.73" fill="#ffe196"/><polygon points="70.87,118.11 94.49000000000001,118.11 70.87,141.73" fill="#c5cef3"/><path d="M 94.49 94.49 A 47.24 47.24 0 0 1 141.73 141.73 L 94.49 141.73" fill="#ffd46a"/><path d="M 141.73 94.49 A 47.24 47.24 0 0 1  188.97 141.73 L 141.73 94.49 A 47.24 47.24 0 0 0 188.97 141.73" fill="#fff8e7"/><path d="M 188.98 94.49 A 47.24 47.24 0 0 1  236.22 141.73 L 188.98 94.49 A 47.24 47.24 0 0 0 236.22 141.73" fill="#5c76de"/><polygon points="236.22,94.49 283.46,94.49 236.22,141.73" fill="#ffe8ad"/><path d="M 283.47 141.73 A 47.24 47.24 0 0 1  330.71000000000004 94.49 L 330.71000000000004 141.73" fill="#f3f5fc"/><path d="M 330.71 94.49 A 47.24 47.24 0 0 1  377.95 141.73 L 330.71 94.49 A 47.24 47.24 0 0 0 377.95 141.73" fill="#dee3f8"/><rect x="377.9555555555556" y="94.4888888888889" width="47.24444444444445" height="47.24444444444445" fill="#ffffff"/><polygon points="377.96,94.49 401.58,94.49 377.96,118.11" fill="#2648d3"/><path d="M 401.58 94.49 A 23.62 23.62 0 0 1  425.2 118.11 L 401.58 94.49 A 23.62 23.62 0 0 0 425.2 118.11" fill="#3958d7"/><path d="M 377.96 118.11 A 23.62 23.62 0 0 1 401.58 141.73 L 377.96 141.73" fill="#a8b6ee"/><polygon points="401.58,118.11 425.2,118.11 401.58,141.73" fill="#b6c1f0"/><path d="M 425.2 141.73 A 47.24 47.24 0 0 0 472.44 94.49 L 425.2 94.49" fill="#ffe39f"/><polygon points="519.68,94.49 519.68,141.73 472.44,141.73" fill="#fff3d4"/><path d="M 519.69 94.49 A 47.24 47.24 0 0 1  566.9300000000001 141.73 L 519.69 94.49 A 47.24 47.24 0 0 0 566.9300000000001 141.73" fill="#ffe8ae"/><rect x="566.9333333333334" y="94.4888888888889" width="47.24444444444445" height="47.24444444444445" fill="#ffffff"/><path d="M 566.93 118.11 A 23.62 23.62 0 0 0 590.55 94.49 L 566.93 94.49" fill="#fff8e8"/><path d="M 590.56 94.49 A 23.62 23.62 0 0 1  614.18 118.11 L 590.56 94.49 A 23.62 23.62 0 0 0 614.18 118.11" fill="#fffbf2"/><polygon points="566.93,118.11 590.55,118.11 590.55,141.73" fill="#4a67db"/><polygon points="590.56,118.11 614.18,118.11 614.18,141.73" fill="#fff0cb"/><path d="M 614.18 141.73 A 47.24 47.24 0 0 0 661.42 94.49 L 614.18 94.49" fill="#a3b1ec"/><rect x="661.4222222222222" y="94.4888888888889" width="47.24444444444445" height="47.24444444444445" fill="#ffffff"/><polygon points="661.42,94.49 685.04,118.11 661.42,118.11" fill="#405ed8"/><polygon points="685.04,94.49 708.66,94.49 708.66,118.11" fill="#fff8e5"/><path d="M 661.42 141.73 A 23.62 23.62 0 0 1  685.04 118.11 L 661.42 141.73 A 23.62 23.62 0 0 0 685.04 118.11" fill="#a4b3ed"/><polygon points="708.66,118.11 708.66,141.73 685.04,141.73" fill="#fff3d5"/><path d="M 708.67 141.73 A 47.24 47.24 0 0 0 755.91 94.49 L 708.67 94.49" fill="#c7d0f4"/><rect x="0" y="141.73333333333335" width="47.24444444444445" height="47.24444444444445" fill="#ffffff"/><polygon points="0,141.73 23.62,141.73 23.62,165.35" fill="#2649d3"/><polygon points="23.62,141.73 47.24,141.73 23.62,165.35" fill="#ffe39c"/><path d="M 0 188.98000000000002 A 23.62 23.62 0 0 0 23.62 165.36 L 0 165.36" fill="#ffeec5"/><path d="M 23.62 188.98000000000002 A 23.62 23.62 0 0 1  47.24 165.36 L 23.62 188.98000000000002 A 23.62 23.62 0 0 0 47.24 165.36" fill="#ffd262"/><polygon points="47.24,141.73 94.48,141.73 94.48,188.97" fill="#ffe7ab"/><path d="M 94.49 188.97 A 47.24 47.24 0 0 0 141.73 141.73 L 94.49 141.73" fill="#3a5ad7"/><polygon points="188.97,141.73 188.97,188.97 141.73,188.97" fill="#98a8ea"/><rect x="188.9777777777778" y="141.73333333333335" width="47.24444444444445" height="47.24444444444445" fill="#ffffff"/><path d="M 188.98 141.73 A 23.62 23.62 0 0 0 212.6 165.35 L 212.6 141.73" fill="#fffcf6"/><polygon points="212.6,141.73 236.22,165.35 212.6,165.35" fill="#ffeec4"/><polygon points="188.98,165.36 212.6,165.36 212.6,188.98000000000002" fill="#b3bff0"/><polygon points="212.6,165.36 236.22,188.98000000000002 212.6,188.98000000000002" fill="#ffe298"/><polygon points="236.22,141.73 283.46,141.73 283.46,188.97" fill="#ffdd86"/><polygon points="330.71000000000004,141.73 330.71000000000004,188.97 283.47,188.97" fill="#fff0cc"/><rect x="330.7111111111111" y="141.73333333333335" width="47.24444444444445" height="47.24444444444445" fill="#ffffff"/><polygon points="330.71,141.73 354.33,165.35 330.71,165.35" fill="#7389e3"/><path d="M 354.33 165.35 A 23.62 23.62 0 0 1  377.95 141.73 L 354.33 165.35 A 23.62 23.62 0 0 0 377.95 141.73" fill="#4361d9"/><path d="M 330.71 165.36 A 23.62 23.62 0 0 1 354.33 188.98000000000002 L 330.71 188.98000000000002" fill="#e9ecfa"/><path d="M 354.33 165.36 A 23.62 23.62 0 0 1  377.95 188.98000000000002 L 354.33 165.36 A 23.62 23.62 0 0 0 377.95 188.98000000000002" fill="#dee3f8"/><path d="M 377.96 141.73 A 47.24 47.24 0 0 1 425.2 188.97 L 377.96 188.97" fill="#ffe8af"/><polygon points="425.2,141.73 472.44,188.97 425.2,188.97" fill="#ffeec5"/><polygon points="519.68,141.73 519.68,188.97 472.44,188.97" fill="#ffdc83"/><polygon points="519.69,141.73 566.9300000000001,141.73 566.9300000000001,188.97" fill="#f8f9fe"/><rect x="566.9333333333334" y="141.73333333333335" width="47.24444444444445" height="47.24444444444445" fill="#ffffff"/><polygon points="590.55,141.73 590.55,165.35 566.93,165.35" fill="#edf0fb"/><path d="M 590.56 165.35 A 23.62 23.62 0 0 1  614.18 141.73 L 590.56 165.35 A 23.62 23.62 0 0 0 614.18 141.73" fill="#647de0"/><polygon points="566.93,165.36 590.55,165.36 590.55,188.98000000000002" fill="#fff8e5"/><path d="M 590.56 188.98000000000002 A 23.62 23.62 0 0 0 614.18 165.36 L 590.56 165.36" fill="#ffe39d"/><rect x="614.1777777777778" y="141.73333333333335" width="47.24444444444445" height="47.24444444444445" fill="#ffffff"/><path d="M 614.18 165.35 A 23.62 23.62 0 0 1  637.8 141.73 L 637.8 165.35" fill="#fff1ce"/><path d="M 637.8 141.73 A 23.62 23.62 0 0 1  661.42 165.35 L 637.8 141.73 A 23.62 23.62 0 0 0 661.42 165.35" fill="#ffd56d"/><polygon points="614.18,165.36 637.8,165.36 614.18,188.98000000000002" fill="#657ee0"/><polygon points="637.8,165.36 661.42,188.98000000000002 637.8,188.98000000000002" fill="#8b9de8"/><polygon points="661.42,141.73 708.66,141.73 661.42,188.97" fill="#ffebb9"/><path d="M 708.67 141.73 A 47.24 47.24 0 0 1  755.91 188.97 L 708.67 141.73 A 47.24 47.24 0 0 0 755.91 188.97" fill="#ffe8af"/><polygon points="0,188.98 47.24,188.98 0,236.22" fill="#ffe4a1"/><path d="M 47.24 236.22 A 47.24 47.24 0 0 1  94.48 188.98 L 47.24 236.22 A 47.24 47.24 0 0 0 94.48 188.98" fill="#7d92e5"/><rect x="94.4888888888889" y="188.9777777777778" width="47.24444444444445" height="47.24444444444445" fill="#ffffff"/><polygon points="94.49,188.98 118.11,212.6 94.49,212.6" fill="#bfcaf2"/><polygon points="118.11,188.98 141.73,188.98 141.73,212.6" fill="#1d41d1"/><path d="M 94.49 236.22 A 23.62 23.62 0 0 1  118.11 212.6 L 118.11 236.22" fill="#ffd56e"/><polygon points="118.11,212.6 141.73,212.6 141.73,236.22" fill="#a1b0ec"/><polygon points="141.73,188.98 188.97,188.98 141.73,236.22" fill="#fff3d6"/><rect x="188.9777777777778" y="188.9777777777778" width="47.24444444444445" height="47.24444444444445" fill="#ffffff"/><path d="M 188.98 188.98 A 23.62 23.62 0 0 1 212.6 212.6 L 188.98 212.6" fill="#fff5db"/><path d="M 212.6 188.98 A 23.62 23.62 0 0 1 236.22 212.6 L 212.6 212.6" fill="#7f93e5"/><polygon points="188.98,212.6 212.6,236.22 188.98,236.22" fill="#fffefd"/><polygon points="212.6,212.6 236.22,212.6 236.22,236.22" fill="#fff8e7"/><path d="M 236.22 188.98 A 47.24 47.24 0 0 0 283.46 236.22 L 283.46 188.98" fill="#ffecbe"/><polygon points="330.71000000000004,188.98 330.71000000000004,236.22 283.47,236.22" fill="#9aaaeb"/><path d="M 330.71 236.22 A 47.24 47.24 0 0 0 377.95 188.98 L 330.71 188.98" fill="#ffd364"/><polygon points="377.96,188.98 425.2,188.98 425.2,236.22" fill="#e3e7f9"/><polygon points="425.2,188.98 472.44,236.22 425.2,236.22" fill="#f7f8fd"/><path d="M 472.44 236.22 A 47.24 47.24 0 0 1  519.68 188.98 L 519.68 236.22" fill="#5671dd"/><path d="M 519.69 188.98 A 47.24 47.24 0 0 0 566.9300000000001 236.22 L 566.9300000000001 188.98" fill="#ffd979"/><path d="M 566.93 188.98 A 47.24 47.24 0 0 1  614.17 236.22 L 566.93 188.98 A 47.24 47.24 0 0 0 614.17 236.22" fill="#1e42d2"/><rect x="614.1777777777778" y="188.9777777777778" width="47.24444444444445" height="47.24444444444445" fill="#ffffff"/><path d="M 614.18 188.98 A 23.62 23.62 0 0 1 637.8 212.6 L 614.18 212.6" fill="#ffdf8e"/><polygon points="637.8,188.98 661.42,188.98 637.8,212.6" fill="#a6b4ed"/><polygon points="614.18,212.6 637.8,212.6 637.8,236.22" fill="#6a81e1"/><polygon points="637.8,212.6 661.42,212.6 661.42,236.22" fill="#ffdd86"/><polygon points="708.66,188.98 708.66,236.22 661.42,236.22" fill="#fff8e5"/><rect x="708.6666666666667" y="188.9777777777778" width="47.24444444444445" height="47.24444444444445" fill="#ffffff"/><polygon points="708.67,188.98 732.29,188.98 708.67,212.6" fill="#fffffe"/><polygon points="755.91,188.98 755.91,212.6 732.29,212.6" fill="#ffdb81"/><path d="M 708.67 236.22 A 23.62 23.62 0 0 0 732.29 212.6 L 708.67 212.6" fill="#c7d0f4"/><polygon points="732.29,212.6 755.91,212.6 732.29,236.22" fill="#ffdc86"/><polygon points="0,236.22 47.24,236.22 47.24,283.46" fill="#4260d9"/><rect x="47.24444444444445" y="236.22222222222223" width="47.24444444444445" height="47.24444444444445" fill="#ffffff"/><path d="M 47.24 236.22 A 23.62 23.62 0 0 0 70.86 259.84 L 70.86 236.22" fill="#788de4"/><polygon points="70.87,236.22 94.49000000000001,259.84 70.87,259.84" fill="#ffdf8f"/><polygon points="47.24,259.84 70.86,283.46 47.24,283.46" fill="#e4e8f9"/><path d="M 70.87 283.46 A 23.62 23.62 0 0 1  94.49000000000001 259.84 L 70.87 283.46 A 23.62 23.62 0 0 0 94.49000000000001 259.84" fill="#fbfbfe"/><path d="M 94.49 283.46 A 47.24 47.24 0 0 1  141.73 236.22 L 94.49 283.46 A 47.24 47.24 0 0 0 141.73 236.22" fill="#c1cbf3"/><polygon points="141.73,236.22 188.97,283.46 141.73,283.46" fill="#fffbf2"/><rect x="188.9777777777778" y="236.22222222222223" width="47.24444444444445" height="47.24444444444445" fill="#ffffff"/><polygon points="212.6,236.22 212.6,259.84 188.98,259.84" fill="#ffe8ae"/><polygon points="212.6,236.22 236.22,236.22 212.6,259.84" fill="#c7d0f4"/><polygon points="188.98,259.84 212.6,259.84 188.98,283.46" fill="#ffe196"/><path d="M 212.6 283.46 A 23.62 23.62 0 0 1  236.22 259.84 L 236.22 283.46" fill="#4d6adb"/><rect x="236.22222222222223" y="236.22222222222223" width="47.24444444444445" height="47.24444444444445" fill="#ffffff"/><polygon points="236.22,236.22 259.84,236.22 236.22,259.84" fill="#a9b7ee"/><path d="M 259.84 259.84 A 23.62 23.62 0 0 1  283.46 236.22 L 259.84 259.84 A 23.62 23.62 0 0 0 283.46 236.22" fill="#ffda7d"/><path d="M 236.22 259.84 A 23.62 23.62 0 0 1  259.84 283.46 L 236.22 259.84 A 23.62 23.62 0 0 0 259.84 283.46" fill="#8498e6"/><path d="M 259.84 283.46 A 23.62 23.62 0 0 1  283.46 259.84 L 259.84 283.46 A 23.62 23.62 0 0 0 283.46 259.84" fill="#dfe4f9"/><path d="M 283.47 236.22 A 47.24 47.24 0 0 1  330.71000000000004 283.46 L 283.47 236.22 A 47.24 47.24 0 0 0 330.71000000000004 283.46" fill="#2f50d5"/><polygon points="330.71,236.22 377.95,236.22 377.95,283.46" fill="#ffe29b"/><rect x="377.9555555555556" y="236.22222222222223" width="47.24444444444445" height="47.24444444444445" fill="#ffffff"/><polygon points="377.96,236.22 401.58,236.22 401.58,259.84" fill="#fffdf7"/><path d="M 401.58 259.84 A 23.62 23.62 0 0 1  425.2 236.22 L 425.2 259.84" fill="#98a9ea"/><polygon points="377.96,259.84 401.58,283.46 377.96,283.46" fill="#4764da"/><polygon points="401.58,259.84 425.2,259.84 425.2,283.46" fill="#ffda7e"/><polygon points="472.44,236.22 472.44,283.46 425.2,283.46" fill="#fff0c9"/><polygon points="472.44,236.22 519.68,283.46 472.44,283.46" fill="#173cd0"/><path d="M 519.69 283.46 A 47.24 47.24 0 0 1  566.9300000000001 236.22 L 566.9300000000001 283.46" fill="#294bd4"/><polygon points="566.93,236.22 614.17,236.22 614.17,283.46" fill="#ffda7e"/><polygon points="614.18,236.22 661.42,236.22 614.18,283.46" fill="#c6cff4"/><polygon points="661.42,236.22 708.66,236.22 708.66,283.46" fill="#fff3d4"/><polygon points="708.67,236.22 755.91,283.46 708.67,283.46" fill="#eff2fc"/><polygon points="0,283.47 47.24,283.47 47.24,330.71000000000004" fill="#7188e2"/><rect x="47.24444444444445" y="283.4666666666667" width="47.24444444444445" height="47.24444444444445" fill="#ffffff"/><path d="M 47.24 283.47 A 23.62 23.62 0 0 0 70.86 307.09000000000003 L 70.86 283.47" fill="#2f50d5"/><path d="M 70.87 283.47 A 23.62 23.62 0 0 0 94.49000000000001 307.09000000000003 L 94.49000000000001 283.47" fill="#fffaed"/><path d="M 47.24 307.09 A 23.62 23.62 0 0 1 70.86 330.71 L 47.24 330.71" fill="#ffe29a"/><path d="M 70.87 330.71 A 23.62 23.62 0 0 0 94.49000000000001 307.09 L 70.87 307.09" fill="#adbaef"/><polygon points="94.49,283.47 141.73,283.47 94.49,330.71000000000004" fill="#ffe7aa"/><path d="M 141.73 283.47 A 47.24 47.24 0 0 1 188.97 330.71000000000004 L 141.73 330.71000000000004" fill="#ffecbd"/><polygon points="188.98,283.47 236.22,283.47 188.98,330.71000000000004" fill="#fff8e7"/><path d="M 236.22 330.71000000000004 A 47.24 47.24 0 0 1  283.46 283.47 L 236.22 330.71000000000004 A 47.24 47.24 0 0 0 283.46 283.47" fill="#ffecbd"/><rect x="283.4666666666667" y="283.4666666666667" width="47.24444444444445" height="47.24444444444445" fill="#ffffff"/><polygon points="283.47,283.47 307.09000000000003,283.47 307.09000000000003,307.09000000000003" fill="#fffdf9"/><polygon points="307.09,283.47 330.71,283.47 330.71,307.09000000000003" fill="#ffd979"/><path d="M 283.47 330.71 A 23.62 23.62 0 0 1  307.09000000000003 307.09 L 307.09000000000003 330.71" fill="#a4b2ed"/><polygon points="307.09,307.09 330.71,307.09 307.09,330.71" fill="#6981e1"/><polygon points="330.71,283.47 377.95,283.47 377.95,330.71000000000004" fill="#3858d7"/><path d="M 377.96 330.71000000000004 A 47.24 47.24 0 0 1  425.2 283.47 L 377.96 330.71000000000004 A 47.24 47.24 0 0 0 425.2 283.47" fill="#3d5cd8"/><polygon points="425.2,283.47 472.44,283.47 472.44,330.71000000000004" fill="#9eadeb"/><rect x="472.44444444444446" y="283.4666666666667" width="47.24444444444445" height="47.24444444444445" fill="#ffffff"/><polygon points="472.44,283.47 496.06,283.47 472.44,307.09000000000003" fill="#cdd5f5"/><path d="M 496.07 283.47 A 23.62 23.62 0 0 1  519.6899999999999 307.09000000000003 L 496.07 283.47 A 23.62 23.62 0 0 0 519.6899999999999 307.09000000000003" fill="#7087e2"/><path d="M 472.44 330.71 A 23.62 23.62 0 0 0 496.06 307.09 L 472.44 307.09" fill="#d6dcf7"/><polygon points="496.07,307.09 519.6899999999999,307.09 519.6899999999999,330.71" fill="#e3e7f9"/><path d="M 519.69 283.47 A 47.24 47.24 0 0 1 566.9300000000001 330.71000000000004 L 519.69 330.71000000000004" fill="#8396e6"/><path d="M 566.93 330.71000000000004 A 47.24 47.24 0 0 0 614.17 283.47 L 566.93 283.47" fill="#ffde8d"/><path d="M 614.18 283.47 A 47.24 47.24 0 0 1  661.42 330.71000000000004 L 614.18 283.47 A 47.24 47.24 0 0 0 661.42 330.71000000000004" fill="#e9edfb"/><path d="M 661.42 283.47 A 47.24 47.24 0 0 1  708.66 330.71000000000004 L 661.42 283.47 A 47.24 47.24 0 0 0 708.66 330.71000000000004" fill="#879ae7"/><rect x="708.6666666666667" y="283.4666666666667" width="47.24444444444445" height="47.24444444444445" fill="#ffffff"/><polygon points="708.67,283.47 732.29,283.47 732.29,307.09000000000003" fill="#ffd363"/><path d="M 732.29 307.09000000000003 A 23.62 23.62 0 0 1  755.91 283.47 L 755.91 307.09000000000003" fill="#ffe5a4"/><polygon points="708.67,307.09 732.29,330.71 708.67,330.71" fill="#ffeec4"/><polygon points="732.29,307.09 755.91,307.09 732.29,330.71" fill="#fbfbfe"/><rect x="0" y="330.7111111111111" width="47.24444444444445" height="47.24444444444445" fill="#ffffff"/><path d="M 0 330.71 A 23.62 23.62 0 0 1  23.62 354.33 L 0 330.71 A 23.62 23.62 0 0 0 23.62 354.33" fill="#fff5db"/><polygon points="23.62,330.71 47.24,330.71 23.62,354.33" fill="#ffd261"/><path d="M 0 354.33 A 23.62 23.62 0 0 1  23.62 377.95 L 0 354.33 A 23.62 23.62 0 0 0 23.62 377.95" fill="#ccd4f5"/><path d="M 23.62 354.33 A 23.62 23.62 0 0 1 47.24 377.95 L 23.62 377.95" fill="#ffd469"/><rect x="47.24444444444445" y="330.7111111111111" width="47.24444444444445" height="47.24444444444445" fill="#ffffff"/><polygon points="70.86,330.71 70.86,354.33 47.24,354.33" fill="#ffda7f"/><path d="M 70.87 330.71 A 23.62 23.62 0 0 0 94.49000000000001 354.33 L 94.49000000000001 330.71" fill="#bac5f1"/><polygon points="47.24,354.33 70.86,354.33 70.86,377.95" fill="#c2ccf3"/><polygon points="70.87,354.33 94.49000000000001,354.33 94.49000000000001,377.95" fill="#3252d6"/><path d="M 94.49 377.95 A 47.24 47.24 0 0 0 141.73 330.71 L 94.49 330.71" fill="#e9edfb"/><path d="M 141.73 330.71 A 47.24 47.24 0 0 1  188.97 377.95 L 141.73 330.71 A 47.24 47.24 0 0 0 188.97 377.95" fill="#fffaef"/><polygon points="188.98,330.71 236.22,330.71 188.98,377.95" fill="#dee3f8"/><rect x="236.22222222222223" y="330.7111111111111" width="47.24444444444445" height="47.24444444444445" fill="#ffffff"/><polygon points="236.22,330.71 259.84,330.71 259.84,354.33" fill="#ffe4a0"/><path d="M 259.84 330.71 A 23.62 23.62 0 0 1 283.46 354.33 L 259.84 354.33" fill="#92a3e9"/><path d="M 236.22 377.95 A 23.62 23.62 0 0 1  259.84 354.33 L 259.84 377.95" fill="#ffeab6"/><polygon points="259.84,354.33 283.46,377.95 259.84,377.95" fill="#ffda7e"/><path d="M 283.47 330.71 A 47.24 47.24 0 0 0 330.71000000000004 377.95 L 330.71000000000004 330.71" fill="#ffd670"/><rect x="330.7111111111111" y="330.7111111111111" width="47.24444444444445" height="47.24444444444445" fill="#ffffff"/><polygon points="330.71,330.71 354.33,354.33 330.71,354.33" fill="#bac5f1"/><polygon points="354.33,330.71 377.95,330.71 377.95,354.33" fill="#ffd364"/><polygon points="330.71,354.33 354.33,354.33 354.33,377.95" fill="#cbd4f5"/><path d="M 354.33 377.95 A 23.62 23.62 0 0 0 377.95 354.33 L 354.33 354.33" fill="#ffd059"/><path d="M 377.96 330.71 A 47.24 47.24 0 0 1  425.2 377.95 L 377.96 330.71 A 47.24 47.24 0 0 0 425.2 377.95" fill="#fff5dd"/><polygon points="425.2,330.71 472.44,330.71 472.44,377.95" fill="#3f5ed8"/><path d="M 472.44 377.95 A 47.24 47.24 0 0 1  519.68 330.71 L 519.68 377.95" fill="#ffebb8"/><path d="M 519.69 377.95 A 47.24 47.24 0 0 1  566.9300000000001 330.71 L 566.9300000000001 377.95" fill="#ffebba"/><polygon points="566.93,330.71 614.17,330.71 566.93,377.95" fill="#a5b3ed"/><polygon points="614.18,330.71 661.42,330.71 661.42,377.95" fill="#a9b6ee"/><path d="M 661.42 330.71 A 47.24 47.24 0 0 1 708.66 377.95 L 661.42 377.95" fill="#fff1ce"/><polygon points="708.67,330.71 755.91,330.71 755.91,377.95" fill="#fffcf5"/><path d="M 0 425.2 A 47.24 47.24 0 0 0 47.24 377.96 L 0 377.96" fill="#e2e7f9"/><rect x="47.24444444444445" y="377.9555555555556" width="47.24444444444445" height="47.24444444444445" fill="#ffffff"/><path d="M 47.24 377.96 A 23.62 23.62 0 0 0 70.86 401.58 L 70.86 377.96" fill="#ffde8b"/><polygon points="70.87,377.96 94.49000000000001,401.58 70.87,401.58" fill="#ffe4a2"/><path d="M 47.24 401.58 A 23.62 23.62 0 0 1  70.86 425.2 L 47.24 401.58 A 23.62 23.62 0 0 0 70.86 425.2" fill="#fcfcfe"/><path d="M 70.87 401.58 A 23.62 23.62 0 0 0 94.49000000000001 425.2 L 94.49000000000001 401.58" fill="#3b5ad7"/><path d="M 94.49 377.96 A 47.24 47.24 0 0 1  141.73 425.2 L 94.49 377.96 A 47.24 47.24 0 0 0 141.73 425.2" fill="#aab7ee"/><rect x="141.73333333333335" y="377.9555555555556" width="47.24444444444445" height="47.24444444444445" fill="#ffffff"/><path d="M 141.73 401.58 A 23.62 23.62 0 0 1  165.35 377.96 L 165.35 401.58" fill="#d0d8f6"/><path d="M 165.36 377.96 A 23.62 23.62 0 0 1  188.98000000000002 401.58 L 165.36 377.96 A 23.62 23.62 0 0 0 188.98000000000002 401.58" fill="#ffe39e"/><polygon points="141.73,401.58 165.35,401.58 141.73,425.2" fill="#ffd772"/><path d="M 165.36 401.58 A 23.62 23.62 0 0 1 188.98000000000002 425.2 L 165.36 425.2" fill="#2044d2"/><polygon points="188.98,377.96 236.22,425.2 188.98,425.2" fill="#cbd3f4"/><path d="M 236.22 425.2 A 47.24 47.24 0 0 1  283.46 377.96 L 283.46 425.2" fill="#ffefc8"/><polygon points="330.71000000000004,377.96 330.71000000000004,425.2 283.47,425.2" fill="#c5cff3"/><rect x="330.7111111111111" y="377.9555555555556" width="47.24444444444445" height="47.24444444444445" fill="#ffffff"/><path d="M 330.71 377.96 A 23.62 23.62 0 0 1  354.33 401.58 L 330.71 377.96 A 23.62 23.62 0 0 0 354.33 401.58" fill="#9caceb"/><polygon points="354.33,377.96 377.95,401.58 354.33,401.58" fill="#a6b5ed"/><path d="M 330.71 425.2 A 23.62 23.62 0 0 1  354.33 401.58 L 354.33 425.2" fill="#7a8fe4"/><polygon points="354.33,401.58 377.95,401.58 354.33,425.2" fill="#fff4d8"/><path d="M 377.96 377.96 A 47.24 47.24 0 0 1 425.2 425.2 L 377.96 425.2" fill="#b2bef0"/><path d="M 425.2 425.2 A 47.24 47.24 0 0 0 472.44 377.96 L 425.2 377.96" fill="#fff1cf"/><polygon points="519.68,377.96 519.68,425.2 472.44,425.2" fill="#ffe4a1"/><path d="M 519.69 425.2 A 47.24 47.24 0 0 1  566.9300000000001 377.96 L 519.69 425.2 A 47.24 47.24 0 0 0 566.9300000000001 377.96" fill="#758be3"/><path d="M 566.93 377.96 A 47.24 47.24 0 0 1  614.17 425.2 L 566.93 377.96 A 47.24 47.24 0 0 0 614.17 425.2" fill="#1a3ed1"/><path d="M 614.18 425.2 A 47.24 47.24 0 0 1  661.42 377.96 L 614.18 425.2 A 47.24 47.24 0 0 0 661.42 377.96" fill="#fff5dd"/><polygon points="661.42,377.96 708.66,377.96 708.66,425.2" fill="#ffde8d"/><polygon points="708.67,377.96 755.91,425.2 708.67,425.2" fill="#ffd15d"/></g></svg>